<mxfile host="Electron" agent="Mozilla/5.0 (Macintosh; Intel Mac OS X 10_15_7) AppleWebKit/537.36 (KHTML, like Gecko) draw.io/24.7.17 Chrome/128.0.6613.36 Electron/32.0.1 Safari/537.36" version="24.7.17" pages="2">
  <diagram name="ollama" id="aKqHUxS_sBr7K3Fq788i">
    <mxGraphModel dx="954" dy="674" grid="1" gridSize="10" guides="1" tooltips="1" connect="1" arrows="1" fold="1" page="1" pageScale="1" pageWidth="827" pageHeight="1169" math="0" shadow="0">
      <root>
        <mxCell id="0" />
        <mxCell id="1" parent="0" />
        <mxCell id="E5HBdvcYcPuv0-VKnIk4-62" value="" style="rounded=0;whiteSpace=wrap;html=1;strokeColor=none;" vertex="1" parent="1">
          <mxGeometry x="100" y="792.5" width="610" height="167.5" as="geometry" />
        </mxCell>
        <mxCell id="E5HBdvcYcPuv0-VKnIk4-50" value="" style="rounded=0;whiteSpace=wrap;html=1;strokeColor=none;" vertex="1" parent="1">
          <mxGeometry x="10" y="20" width="860" height="710" as="geometry" />
        </mxCell>
        <mxCell id="E5HBdvcYcPuv0-VKnIk4-21" value="interactive" style="shape=umlFrame;whiteSpace=wrap;html=1;pointerEvents=0;width=80;height=35;fillColor=#f8cecc;strokeColor=#b85450;" vertex="1" parent="1">
          <mxGeometry x="90" y="425" width="720" height="255" as="geometry" />
        </mxCell>
        <mxCell id="E5HBdvcYcPuv0-VKnIk4-4" value="" style="rounded=0;whiteSpace=wrap;html=1;fillColor=#f5f5f5;fontColor=#333333;strokeColor=#666666;" vertex="1" parent="1">
          <mxGeometry x="280" y="50" width="260" height="85" as="geometry" />
        </mxCell>
        <mxCell id="E5HBdvcYcPuv0-VKnIk4-1" value="Ollama CLI" style="shape=umlLifeline;perimeter=lifelinePerimeter;whiteSpace=wrap;html=1;container=1;dropTarget=0;collapsible=0;recursiveResize=0;outlineConnect=0;portConstraint=eastwest;newEdgeStyle={&quot;curved&quot;:0,&quot;rounded&quot;:0};fillColor=#dae8fc;strokeColor=#6c8ebf;" vertex="1" parent="1">
          <mxGeometry x="160" y="80" width="100" height="630" as="geometry" />
        </mxCell>
        <mxCell id="E5HBdvcYcPuv0-VKnIk4-22" value="" style="html=1;points=[[0,0,0,0,5],[0,1,0,0,-5],[1,0,0,0,5],[1,1,0,0,-5]];perimeter=orthogonalPerimeter;outlineConnect=0;targetShapes=umlLifeline;portConstraint=eastwest;newEdgeStyle={&quot;curved&quot;:0,&quot;rounded&quot;:0};" vertex="1" parent="E5HBdvcYcPuv0-VKnIk4-1">
          <mxGeometry x="45" y="490" width="10" height="90" as="geometry" />
        </mxCell>
        <mxCell id="E5HBdvcYcPuv0-VKnIk4-2" value="Ollama HTTP Server" style="shape=umlLifeline;perimeter=lifelinePerimeter;whiteSpace=wrap;html=1;container=1;dropTarget=0;collapsible=0;recursiveResize=0;outlineConnect=0;portConstraint=eastwest;newEdgeStyle={&quot;curved&quot;:0,&quot;rounded&quot;:0};fillColor=#f8cecc;strokeColor=#b85450;" vertex="1" parent="1">
          <mxGeometry x="300" y="80" width="100" height="630" as="geometry" />
        </mxCell>
        <mxCell id="E5HBdvcYcPuv0-VKnIk4-3" value="llama.cpp" style="shape=umlLifeline;perimeter=lifelinePerimeter;whiteSpace=wrap;html=1;container=1;dropTarget=0;collapsible=0;recursiveResize=0;outlineConnect=0;portConstraint=eastwest;newEdgeStyle={&quot;curved&quot;:0,&quot;rounded&quot;:0};fillColor=#ffe6cc;strokeColor=#d79b00;" vertex="1" parent="1">
          <mxGeometry x="420" y="80" width="100" height="630" as="geometry" />
        </mxCell>
        <mxCell id="E5HBdvcYcPuv0-VKnIk4-5" value="Ollama Server" style="text;html=1;align=center;verticalAlign=middle;whiteSpace=wrap;rounded=0;" vertex="1" parent="1">
          <mxGeometry x="365" y="50" width="90" height="30" as="geometry" />
        </mxCell>
        <mxCell id="E5HBdvcYcPuv0-VKnIk4-6" value="&lt;font color=&quot;#cc00cc&quot;&gt;ollama run llama3.2&lt;/font&gt;" style="text;html=1;align=center;verticalAlign=middle;whiteSpace=wrap;rounded=0;" vertex="1" parent="1">
          <mxGeometry x="30" y="115.5" width="120" height="30" as="geometry" />
        </mxCell>
        <mxCell id="E5HBdvcYcPuv0-VKnIk4-7" value="" style="endArrow=classic;html=1;rounded=0;" edge="1" parent="1">
          <mxGeometry width="50" height="50" relative="1" as="geometry">
            <mxPoint x="210" y="200" as="sourcePoint" />
            <mxPoint x="350" y="200" as="targetPoint" />
          </mxGeometry>
        </mxCell>
        <mxCell id="E5HBdvcYcPuv0-VKnIk4-8" value="POST&amp;nbsp; /api/show" style="text;html=1;align=center;verticalAlign=middle;whiteSpace=wrap;rounded=0;" vertex="1" parent="1">
          <mxGeometry x="210" y="180" width="140" height="20" as="geometry" />
        </mxCell>
        <mxCell id="E5HBdvcYcPuv0-VKnIk4-9" value="404 not found" style="html=1;verticalAlign=bottom;endArrow=open;dashed=1;endSize=8;curved=0;rounded=0;" edge="1" parent="1">
          <mxGeometry relative="1" as="geometry">
            <mxPoint x="350" y="235" as="sourcePoint" />
            <mxPoint x="210" y="235" as="targetPoint" />
          </mxGeometry>
        </mxCell>
        <mxCell id="E5HBdvcYcPuv0-VKnIk4-10" value="" style="endArrow=classic;html=1;rounded=0;" edge="1" parent="1">
          <mxGeometry width="50" height="50" relative="1" as="geometry">
            <mxPoint x="210" y="283" as="sourcePoint" />
            <mxPoint x="350" y="283" as="targetPoint" />
          </mxGeometry>
        </mxCell>
        <mxCell id="E5HBdvcYcPuv0-VKnIk4-11" value="POST&amp;nbsp; /api/pull" style="text;html=1;align=center;verticalAlign=middle;whiteSpace=wrap;rounded=0;" vertex="1" parent="1">
          <mxGeometry x="210" y="263" width="140" height="20" as="geometry" />
        </mxCell>
        <mxCell id="E5HBdvcYcPuv0-VKnIk4-12" value="" style="html=1;verticalAlign=bottom;endArrow=open;dashed=1;endSize=8;curved=0;rounded=0;" edge="1" parent="1">
          <mxGeometry relative="1" as="geometry">
            <mxPoint x="350" y="314" as="sourcePoint" />
            <mxPoint x="210" y="314" as="targetPoint" />
          </mxGeometry>
        </mxCell>
        <mxCell id="E5HBdvcYcPuv0-VKnIk4-13" value="" style="endArrow=classic;html=1;rounded=0;" edge="1" parent="1">
          <mxGeometry width="50" height="50" relative="1" as="geometry">
            <mxPoint x="210" y="360" as="sourcePoint" />
            <mxPoint x="350" y="360" as="targetPoint" />
          </mxGeometry>
        </mxCell>
        <mxCell id="E5HBdvcYcPuv0-VKnIk4-14" value="POST&amp;nbsp; /api/show" style="text;html=1;align=center;verticalAlign=middle;whiteSpace=wrap;rounded=0;" vertex="1" parent="1">
          <mxGeometry x="210" y="340" width="140" height="20" as="geometry" />
        </mxCell>
        <mxCell id="E5HBdvcYcPuv0-VKnIk4-15" value="return Model Info" style="html=1;verticalAlign=bottom;endArrow=open;dashed=1;endSize=8;curved=0;rounded=0;" edge="1" parent="1">
          <mxGeometry relative="1" as="geometry">
            <mxPoint x="350" y="392" as="sourcePoint" />
            <mxPoint x="210" y="392" as="targetPoint" />
          </mxGeometry>
        </mxCell>
        <mxCell id="E5HBdvcYcPuv0-VKnIk4-16" value="" style="endArrow=classic;html=1;rounded=0;" edge="1" parent="1">
          <mxGeometry width="50" height="50" relative="1" as="geometry">
            <mxPoint x="210" y="460" as="sourcePoint" />
            <mxPoint x="350" y="460" as="targetPoint" />
          </mxGeometry>
        </mxCell>
        <mxCell id="E5HBdvcYcPuv0-VKnIk4-17" value="POST&amp;nbsp; /api/generate" style="text;html=1;align=center;verticalAlign=middle;whiteSpace=wrap;rounded=0;" vertex="1" parent="1">
          <mxGeometry x="210" y="440" width="140" height="20" as="geometry" />
        </mxCell>
        <mxCell id="E5HBdvcYcPuv0-VKnIk4-18" value="" style="html=1;verticalAlign=bottom;endArrow=open;dashed=1;endSize=8;curved=0;rounded=0;" edge="1" parent="1">
          <mxGeometry relative="1" as="geometry">
            <mxPoint x="350" y="485" as="sourcePoint" />
            <mxPoint x="210" y="485" as="targetPoint" />
          </mxGeometry>
        </mxCell>
        <mxCell id="E5HBdvcYcPuv0-VKnIk4-20" value="print the messages in model info" style="text;html=1;align=center;verticalAlign=middle;whiteSpace=wrap;rounded=0;" vertex="1" parent="1">
          <mxGeometry x="120" y="510" width="190" height="30" as="geometry" />
        </mxCell>
        <mxCell id="E5HBdvcYcPuv0-VKnIk4-23" value="" style="endArrow=classic;html=1;rounded=0;" edge="1" parent="1">
          <mxGeometry width="50" height="50" relative="1" as="geometry">
            <mxPoint x="210" y="570" as="sourcePoint" />
            <mxPoint x="350" y="570" as="targetPoint" />
          </mxGeometry>
        </mxCell>
        <mxCell id="E5HBdvcYcPuv0-VKnIk4-24" value="POST&amp;nbsp; /api/chat" style="text;html=1;align=center;verticalAlign=middle;whiteSpace=wrap;rounded=0;" vertex="1" parent="1">
          <mxGeometry x="210" y="550" width="140" height="20" as="geometry" />
        </mxCell>
        <mxCell id="E5HBdvcYcPuv0-VKnIk4-25" value="" style="html=1;verticalAlign=bottom;endArrow=open;dashed=1;endSize=8;curved=0;rounded=0;" edge="1" parent="1">
          <mxGeometry relative="1" as="geometry">
            <mxPoint x="350" y="656" as="sourcePoint" />
            <mxPoint x="210" y="656" as="targetPoint" />
          </mxGeometry>
        </mxCell>
        <mxCell id="E5HBdvcYcPuv0-VKnIk4-26" value="local storage" style="shape=umlLifeline;perimeter=lifelinePerimeter;whiteSpace=wrap;html=1;container=1;dropTarget=0;collapsible=0;recursiveResize=0;outlineConnect=0;portConstraint=eastwest;newEdgeStyle={&quot;curved&quot;:0,&quot;rounded&quot;:0};fillColor=#d5e8d4;strokeColor=#82b366;" vertex="1" parent="1">
          <mxGeometry x="560" y="80" width="100" height="630" as="geometry" />
        </mxCell>
        <mxCell id="E5HBdvcYcPuv0-VKnIk4-28" value="" style="endArrow=classic;html=1;rounded=0;" edge="1" parent="1">
          <mxGeometry width="50" height="50" relative="1" as="geometry">
            <mxPoint x="350" y="210" as="sourcePoint" />
            <mxPoint x="610" y="210" as="targetPoint" />
          </mxGeometry>
        </mxCell>
        <mxCell id="E5HBdvcYcPuv0-VKnIk4-29" value="read manifest:&amp;nbsp;&amp;nbsp;&lt;font color=&quot;#7f00ff&quot;&gt;~/.ollama/models&lt;/font&gt;/manifests/&lt;font color=&quot;#cc0000&quot;&gt;registry.ollama.ai&lt;/font&gt;/&lt;font color=&quot;#cc6600&quot;&gt;library&lt;/font&gt;/&lt;font color=&quot;#cc00cc&quot;&gt;llama3.2&lt;/font&gt;/&lt;font color=&quot;#67ab9f&quot;&gt;latest&lt;/font&gt;" style="text;html=1;align=center;verticalAlign=middle;whiteSpace=wrap;rounded=0;" vertex="1" parent="1">
          <mxGeometry x="350" y="190" width="450" height="20" as="geometry" />
        </mxCell>
        <mxCell id="E5HBdvcYcPuv0-VKnIk4-30" value="&amp;lt;model-path&amp;gt;/manifests/&amp;lt;registry&amp;gt;/&amp;lt;namespace&amp;gt;/&amp;lt;repository&amp;gt;/&amp;lt;tag&amp;gt;" style="text;html=1;align=center;verticalAlign=middle;whiteSpace=wrap;rounded=0;" vertex="1" parent="1">
          <mxGeometry x="390" y="160" width="380" height="30" as="geometry" />
        </mxCell>
        <mxCell id="E5HBdvcYcPuv0-VKnIk4-32" value="" style="html=1;verticalAlign=bottom;endArrow=open;dashed=1;endSize=8;curved=0;rounded=0;" edge="1" parent="1">
          <mxGeometry relative="1" as="geometry">
            <mxPoint x="610" y="226" as="sourcePoint" />
            <mxPoint x="350" y="226" as="targetPoint" />
          </mxGeometry>
        </mxCell>
        <mxCell id="E5HBdvcYcPuv0-VKnIk4-33" value="remote registry" style="shape=umlLifeline;perimeter=lifelinePerimeter;whiteSpace=wrap;html=1;container=1;dropTarget=0;collapsible=0;recursiveResize=0;outlineConnect=0;portConstraint=eastwest;newEdgeStyle={&quot;curved&quot;:0,&quot;rounded&quot;:0};fillColor=#e1d5e7;strokeColor=#9673a6;" vertex="1" parent="1">
          <mxGeometry x="680" y="80" width="100" height="630" as="geometry" />
        </mxCell>
        <mxCell id="E5HBdvcYcPuv0-VKnIk4-34" value="" style="endArrow=classic;html=1;rounded=0;" edge="1" parent="1">
          <mxGeometry width="50" height="50" relative="1" as="geometry">
            <mxPoint x="350" y="291" as="sourcePoint" />
            <mxPoint x="730" y="291" as="targetPoint" />
          </mxGeometry>
        </mxCell>
        <mxCell id="E5HBdvcYcPuv0-VKnIk4-36" value="" style="endArrow=classic;html=1;rounded=0;" edge="1" parent="1">
          <mxGeometry width="50" height="50" relative="1" as="geometry">
            <mxPoint x="350" y="307" as="sourcePoint" />
            <mxPoint x="610" y="307" as="targetPoint" />
          </mxGeometry>
        </mxCell>
        <mxCell id="E5HBdvcYcPuv0-VKnIk4-37" value="download manifest &amp;amp; blobs" style="text;html=1;align=center;verticalAlign=middle;whiteSpace=wrap;rounded=0;" vertex="1" parent="1">
          <mxGeometry x="390" y="270" width="180" height="23" as="geometry" />
        </mxCell>
        <mxCell id="E5HBdvcYcPuv0-VKnIk4-38" value="" style="endArrow=classic;html=1;rounded=0;" edge="1" parent="1">
          <mxGeometry width="50" height="50" relative="1" as="geometry">
            <mxPoint x="350" y="370" as="sourcePoint" />
            <mxPoint x="610" y="370" as="targetPoint" />
          </mxGeometry>
        </mxCell>
        <mxCell id="E5HBdvcYcPuv0-VKnIk4-39" value="" style="html=1;verticalAlign=bottom;endArrow=open;dashed=1;endSize=8;curved=0;rounded=0;" edge="1" parent="1">
          <mxGeometry relative="1" as="geometry">
            <mxPoint x="610" y="383" as="sourcePoint" />
            <mxPoint x="350" y="383" as="targetPoint" />
          </mxGeometry>
        </mxCell>
        <mxCell id="E5HBdvcYcPuv0-VKnIk4-41" value="" style="endArrow=classic;html=1;rounded=0;" edge="1" parent="1">
          <mxGeometry width="50" height="50" relative="1" as="geometry">
            <mxPoint x="350" y="585" as="sourcePoint" />
            <mxPoint x="470" y="585" as="targetPoint" />
          </mxGeometry>
        </mxCell>
        <mxCell id="E5HBdvcYcPuv0-VKnIk4-42" value="GET&amp;nbsp; http://127.0.0.1:port&lt;font color=&quot;#cc0000&quot;&gt;/health&lt;/font&gt;" style="text;html=1;align=center;verticalAlign=middle;whiteSpace=wrap;rounded=0;" vertex="1" parent="1">
          <mxGeometry x="350" y="560" width="180" height="25" as="geometry" />
        </mxCell>
        <mxCell id="E5HBdvcYcPuv0-VKnIk4-43" value="" style="html=1;verticalAlign=bottom;endArrow=open;dashed=1;endSize=8;curved=0;rounded=0;" edge="1" parent="1">
          <mxGeometry relative="1" as="geometry">
            <mxPoint x="470" y="597" as="sourcePoint" />
            <mxPoint x="350" y="597" as="targetPoint" />
          </mxGeometry>
        </mxCell>
        <mxCell id="E5HBdvcYcPuv0-VKnIk4-44" value="" style="endArrow=classic;html=1;rounded=0;" edge="1" parent="1">
          <mxGeometry width="50" height="50" relative="1" as="geometry">
            <mxPoint x="350" y="630" as="sourcePoint" />
            <mxPoint x="470" y="630" as="targetPoint" />
          </mxGeometry>
        </mxCell>
        <mxCell id="E5HBdvcYcPuv0-VKnIk4-45" value="POST&amp;nbsp; http://127.0.0.1:port&lt;font color=&quot;#cc0000&quot;&gt;/completion&lt;/font&gt;" style="text;html=1;align=center;verticalAlign=middle;whiteSpace=wrap;rounded=0;" vertex="1" parent="1">
          <mxGeometry x="350" y="610" width="210" height="20" as="geometry" />
        </mxCell>
        <mxCell id="E5HBdvcYcPuv0-VKnIk4-46" value="return" style="html=1;verticalAlign=bottom;endArrow=open;dashed=1;endSize=8;curved=0;rounded=0;" edge="1" parent="1">
          <mxGeometry relative="1" as="geometry">
            <mxPoint x="470" y="650" as="sourcePoint" />
            <mxPoint x="350" y="650" as="targetPoint" />
          </mxGeometry>
        </mxCell>
        <mxCell id="E5HBdvcYcPuv0-VKnIk4-47" value="prepare" style="shape=umlFrame;whiteSpace=wrap;html=1;pointerEvents=0;width=80;height=35;fillColor=#d5e8d4;strokeColor=#82b366;" vertex="1" parent="1">
          <mxGeometry x="90" y="145.5" width="720" height="264.5" as="geometry" />
        </mxCell>
        <mxCell id="E5HBdvcYcPuv0-VKnIk4-59" style="edgeStyle=orthogonalEdgeStyle;rounded=0;orthogonalLoop=1;jettySize=auto;html=1;exitX=1;exitY=0.5;exitDx=0;exitDy=0;entryX=0;entryY=0.5;entryDx=0;entryDy=0;" edge="1" parent="1" source="E5HBdvcYcPuv0-VKnIk4-51" target="E5HBdvcYcPuv0-VKnIk4-52">
          <mxGeometry relative="1" as="geometry" />
        </mxCell>
        <mxCell id="E5HBdvcYcPuv0-VKnIk4-51" value="&lt;div&gt;Ollama CLI&lt;/div&gt;" style="rounded=0;whiteSpace=wrap;html=1;fillColor=#dae8fc;strokeColor=#6c8ebf;" vertex="1" parent="1">
          <mxGeometry x="130" y="841.25" width="120" height="60" as="geometry" />
        </mxCell>
        <mxCell id="E5HBdvcYcPuv0-VKnIk4-52" value="" style="rounded=0;whiteSpace=wrap;html=1;fillColor=#f5f5f5;fontColor=#333333;strokeColor=#666666;" vertex="1" parent="1">
          <mxGeometry x="325" y="830" width="325" height="82.5" as="geometry" />
        </mxCell>
        <mxCell id="E5HBdvcYcPuv0-VKnIk4-61" style="edgeStyle=orthogonalEdgeStyle;rounded=0;orthogonalLoop=1;jettySize=auto;html=1;exitX=1;exitY=0.5;exitDx=0;exitDy=0;entryX=0;entryY=0.5;entryDx=0;entryDy=0;" edge="1" parent="1" source="E5HBdvcYcPuv0-VKnIk4-55" target="E5HBdvcYcPuv0-VKnIk4-56">
          <mxGeometry relative="1" as="geometry" />
        </mxCell>
        <mxCell id="E5HBdvcYcPuv0-VKnIk4-55" value="Ollama HTTP Server" style="rounded=0;whiteSpace=wrap;html=1;fillColor=#f8cecc;strokeColor=#b85450;" vertex="1" parent="1">
          <mxGeometry x="350" y="842.5" width="120" height="60" as="geometry" />
        </mxCell>
        <mxCell id="E5HBdvcYcPuv0-VKnIk4-56" value="llama.cpp" style="rounded=0;whiteSpace=wrap;html=1;fillColor=#ffe6cc;strokeColor=#d79b00;" vertex="1" parent="1">
          <mxGeometry x="500" y="842.5" width="120" height="60" as="geometry" />
        </mxCell>
        <mxCell id="E5HBdvcYcPuv0-VKnIk4-57" value="client" style="text;html=1;align=center;verticalAlign=middle;whiteSpace=wrap;rounded=0;" vertex="1" parent="1">
          <mxGeometry x="150" y="901.25" width="80" height="30" as="geometry" />
        </mxCell>
        <mxCell id="E5HBdvcYcPuv0-VKnIk4-58" value="server" style="text;html=1;align=center;verticalAlign=middle;whiteSpace=wrap;rounded=0;" vertex="1" parent="1">
          <mxGeometry x="447.5" y="912.5" width="80" height="30" as="geometry" />
        </mxCell>
        <mxCell id="E5HBdvcYcPuv0-VKnIk4-60" value="HTTP" style="text;html=1;align=center;verticalAlign=middle;whiteSpace=wrap;rounded=0;" vertex="1" parent="1">
          <mxGeometry x="260" y="852.5" width="60" height="18.75" as="geometry" />
        </mxCell>
      </root>
    </mxGraphModel>
  </diagram>
  <diagram id="K9Z2If6UamVR-xtuuXeh" name="build-chatgpt">
    <mxGraphModel dx="954" dy="674" grid="1" gridSize="10" guides="1" tooltips="1" connect="1" arrows="1" fold="1" page="1" pageScale="1" pageWidth="827" pageHeight="1169" math="0" shadow="0">
      <root>
        <mxCell id="0" />
        <mxCell id="1" parent="0" />
        <mxCell id="b7tA7qNJ-c-AhHCX-gwD-8" value="" style="rounded=0;whiteSpace=wrap;html=1;strokeColor=none;" vertex="1" parent="1">
          <mxGeometry x="50" y="60" width="690" height="150" as="geometry" />
        </mxCell>
        <mxCell id="b7tA7qNJ-c-AhHCX-gwD-5" style="edgeStyle=orthogonalEdgeStyle;rounded=0;orthogonalLoop=1;jettySize=auto;html=1;exitX=1;exitY=0.5;exitDx=0;exitDy=0;entryX=0;entryY=0.5;entryDx=0;entryDy=0;" edge="1" parent="1" source="b7tA7qNJ-c-AhHCX-gwD-1" target="b7tA7qNJ-c-AhHCX-gwD-2">
          <mxGeometry relative="1" as="geometry" />
        </mxCell>
        <mxCell id="b7tA7qNJ-c-AhHCX-gwD-1" value="web" style="rounded=1;whiteSpace=wrap;html=1;fillColor=#f5f5f5;fontColor=#333333;strokeColor=#666666;" vertex="1" parent="1">
          <mxGeometry x="80" y="100" width="120" height="60" as="geometry" />
        </mxCell>
        <mxCell id="b7tA7qNJ-c-AhHCX-gwD-6" style="edgeStyle=orthogonalEdgeStyle;rounded=0;orthogonalLoop=1;jettySize=auto;html=1;exitX=1;exitY=0.5;exitDx=0;exitDy=0;entryX=0;entryY=0.5;entryDx=0;entryDy=0;" edge="1" parent="1" source="b7tA7qNJ-c-AhHCX-gwD-2" target="b7tA7qNJ-c-AhHCX-gwD-3">
          <mxGeometry relative="1" as="geometry" />
        </mxCell>
        <mxCell id="b7tA7qNJ-c-AhHCX-gwD-2" value="server" style="rounded=1;whiteSpace=wrap;html=1;fillColor=#dae8fc;strokeColor=#6c8ebf;" vertex="1" parent="1">
          <mxGeometry x="250" y="100" width="120" height="60" as="geometry" />
        </mxCell>
        <mxCell id="b7tA7qNJ-c-AhHCX-gwD-3" value="inference runtime" style="rounded=1;whiteSpace=wrap;html=1;fillColor=#f8cecc;strokeColor=#b85450;" vertex="1" parent="1">
          <mxGeometry x="414" y="100" width="120" height="60" as="geometry" />
        </mxCell>
        <mxCell id="b7tA7qNJ-c-AhHCX-gwD-7" style="edgeStyle=orthogonalEdgeStyle;rounded=0;orthogonalLoop=1;jettySize=auto;html=1;exitX=0;exitY=0.5;exitDx=0;exitDy=0;entryX=1;entryY=0.5;entryDx=0;entryDy=0;" edge="1" parent="1" source="b7tA7qNJ-c-AhHCX-gwD-4" target="b7tA7qNJ-c-AhHCX-gwD-3">
          <mxGeometry relative="1" as="geometry" />
        </mxCell>
        <mxCell id="b7tA7qNJ-c-AhHCX-gwD-4" value="LLM" style="rounded=1;whiteSpace=wrap;html=1;fillColor=#ffe6cc;strokeColor=#d79b00;" vertex="1" parent="1">
          <mxGeometry x="580" y="100" width="120" height="60" as="geometry" />
        </mxCell>
        <mxCell id="b7tA7qNJ-c-AhHCX-gwD-9" value="" style="rounded=0;whiteSpace=wrap;html=1;strokeColor=none;" vertex="1" parent="1">
          <mxGeometry x="50" y="310" width="690" height="230" as="geometry" />
        </mxCell>
        <mxCell id="b7tA7qNJ-c-AhHCX-gwD-10" style="edgeStyle=orthogonalEdgeStyle;rounded=0;orthogonalLoop=1;jettySize=auto;html=1;exitX=1;exitY=0.5;exitDx=0;exitDy=0;entryX=0;entryY=0.5;entryDx=0;entryDy=0;" edge="1" source="b7tA7qNJ-c-AhHCX-gwD-11" target="b7tA7qNJ-c-AhHCX-gwD-13" parent="1">
          <mxGeometry relative="1" as="geometry" />
        </mxCell>
        <mxCell id="b7tA7qNJ-c-AhHCX-gwD-11" value="web" style="rounded=1;whiteSpace=wrap;html=1;fillColor=#f5f5f5;fontColor=#333333;strokeColor=#666666;" vertex="1" parent="1">
          <mxGeometry x="80" y="350" width="120" height="60" as="geometry" />
        </mxCell>
        <mxCell id="b7tA7qNJ-c-AhHCX-gwD-12" style="edgeStyle=orthogonalEdgeStyle;rounded=0;orthogonalLoop=1;jettySize=auto;html=1;exitX=1;exitY=0.5;exitDx=0;exitDy=0;entryX=0;entryY=0.5;entryDx=0;entryDy=0;" edge="1" source="b7tA7qNJ-c-AhHCX-gwD-13" target="b7tA7qNJ-c-AhHCX-gwD-14" parent="1">
          <mxGeometry relative="1" as="geometry" />
        </mxCell>
        <mxCell id="b7tA7qNJ-c-AhHCX-gwD-18" style="edgeStyle=orthogonalEdgeStyle;rounded=0;orthogonalLoop=1;jettySize=auto;html=1;exitX=0.5;exitY=1;exitDx=0;exitDy=0;" edge="1" parent="1" source="b7tA7qNJ-c-AhHCX-gwD-13" target="b7tA7qNJ-c-AhHCX-gwD-17">
          <mxGeometry relative="1" as="geometry" />
        </mxCell>
        <mxCell id="b7tA7qNJ-c-AhHCX-gwD-13" value="server" style="rounded=1;whiteSpace=wrap;html=1;fillColor=#dae8fc;strokeColor=#6c8ebf;" vertex="1" parent="1">
          <mxGeometry x="250" y="350" width="120" height="60" as="geometry" />
        </mxCell>
        <mxCell id="b7tA7qNJ-c-AhHCX-gwD-14" value="inference runtime" style="rounded=1;whiteSpace=wrap;html=1;fillColor=#f8cecc;strokeColor=#b85450;" vertex="1" parent="1">
          <mxGeometry x="414" y="350" width="120" height="60" as="geometry" />
        </mxCell>
        <mxCell id="b7tA7qNJ-c-AhHCX-gwD-15" style="edgeStyle=orthogonalEdgeStyle;rounded=0;orthogonalLoop=1;jettySize=auto;html=1;exitX=0;exitY=0.5;exitDx=0;exitDy=0;entryX=1;entryY=0.5;entryDx=0;entryDy=0;" edge="1" source="b7tA7qNJ-c-AhHCX-gwD-16" target="b7tA7qNJ-c-AhHCX-gwD-14" parent="1">
          <mxGeometry relative="1" as="geometry" />
        </mxCell>
        <mxCell id="b7tA7qNJ-c-AhHCX-gwD-16" value="LLM" style="rounded=1;whiteSpace=wrap;html=1;fillColor=#ffe6cc;strokeColor=#d79b00;" vertex="1" parent="1">
          <mxGeometry x="580" y="350" width="120" height="60" as="geometry" />
        </mxCell>
        <mxCell id="b7tA7qNJ-c-AhHCX-gwD-17" value="DB" style="rounded=1;whiteSpace=wrap;html=1;fillColor=#fff2cc;strokeColor=#d6b656;" vertex="1" parent="1">
          <mxGeometry x="250" y="450" width="120" height="60" as="geometry" />
        </mxCell>
        <mxCell id="b7tA7qNJ-c-AhHCX-gwD-19" value="" style="rounded=0;whiteSpace=wrap;html=1;strokeColor=none;" vertex="1" parent="1">
          <mxGeometry x="40" y="610" width="750" height="350" as="geometry" />
        </mxCell>
        <mxCell id="b7tA7qNJ-c-AhHCX-gwD-20" style="edgeStyle=orthogonalEdgeStyle;rounded=0;orthogonalLoop=1;jettySize=auto;html=1;exitX=1;exitY=0.5;exitDx=0;exitDy=0;entryX=0;entryY=0.5;entryDx=0;entryDy=0;" edge="1" source="b7tA7qNJ-c-AhHCX-gwD-21" target="b7tA7qNJ-c-AhHCX-gwD-24" parent="1">
          <mxGeometry relative="1" as="geometry" />
        </mxCell>
        <mxCell id="b7tA7qNJ-c-AhHCX-gwD-21" value="web" style="rounded=1;whiteSpace=wrap;html=1;fillColor=#f5f5f5;fontColor=#333333;strokeColor=#666666;" vertex="1" parent="1">
          <mxGeometry x="80" y="730" width="120" height="60" as="geometry" />
        </mxCell>
        <mxCell id="b7tA7qNJ-c-AhHCX-gwD-22" style="rounded=0;orthogonalLoop=1;jettySize=auto;html=1;exitX=1;exitY=0.5;exitDx=0;exitDy=0;entryX=0;entryY=0.5;entryDx=0;entryDy=0;" edge="1" source="b7tA7qNJ-c-AhHCX-gwD-24" target="b7tA7qNJ-c-AhHCX-gwD-25" parent="1">
          <mxGeometry relative="1" as="geometry" />
        </mxCell>
        <mxCell id="b7tA7qNJ-c-AhHCX-gwD-23" style="rounded=0;orthogonalLoop=1;jettySize=auto;html=1;exitX=0.5;exitY=1;exitDx=0;exitDy=0;" edge="1" source="b7tA7qNJ-c-AhHCX-gwD-24" target="b7tA7qNJ-c-AhHCX-gwD-28" parent="1">
          <mxGeometry relative="1" as="geometry" />
        </mxCell>
        <mxCell id="b7tA7qNJ-c-AhHCX-gwD-30" style="rounded=0;orthogonalLoop=1;jettySize=auto;html=1;exitX=0.5;exitY=1;exitDx=0;exitDy=0;entryX=0.5;entryY=0;entryDx=0;entryDy=0;" edge="1" parent="1" source="b7tA7qNJ-c-AhHCX-gwD-24" target="b7tA7qNJ-c-AhHCX-gwD-29">
          <mxGeometry relative="1" as="geometry" />
        </mxCell>
        <mxCell id="b7tA7qNJ-c-AhHCX-gwD-36" style="edgeStyle=orthogonalEdgeStyle;rounded=0;orthogonalLoop=1;jettySize=auto;html=1;exitX=1;exitY=0.5;exitDx=0;exitDy=0;entryX=0;entryY=0.5;entryDx=0;entryDy=0;" edge="1" parent="1" source="b7tA7qNJ-c-AhHCX-gwD-24" target="b7tA7qNJ-c-AhHCX-gwD-31">
          <mxGeometry relative="1" as="geometry" />
        </mxCell>
        <mxCell id="b7tA7qNJ-c-AhHCX-gwD-37" style="rounded=0;orthogonalLoop=1;jettySize=auto;html=1;exitX=1;exitY=0.5;exitDx=0;exitDy=0;entryX=0;entryY=0.5;entryDx=0;entryDy=0;" edge="1" parent="1" source="b7tA7qNJ-c-AhHCX-gwD-24" target="b7tA7qNJ-c-AhHCX-gwD-35">
          <mxGeometry relative="1" as="geometry" />
        </mxCell>
        <mxCell id="b7tA7qNJ-c-AhHCX-gwD-24" value="server" style="rounded=1;whiteSpace=wrap;html=1;fillColor=#dae8fc;strokeColor=#6c8ebf;" vertex="1" parent="1">
          <mxGeometry x="250" y="730" width="120" height="60" as="geometry" />
        </mxCell>
        <mxCell id="b7tA7qNJ-c-AhHCX-gwD-25" value="inference runtime" style="rounded=1;whiteSpace=wrap;html=1;fillColor=#f8cecc;strokeColor=#b85450;" vertex="1" parent="1">
          <mxGeometry x="454" y="650" width="120" height="60" as="geometry" />
        </mxCell>
        <mxCell id="b7tA7qNJ-c-AhHCX-gwD-26" style="edgeStyle=orthogonalEdgeStyle;rounded=0;orthogonalLoop=1;jettySize=auto;html=1;exitX=0;exitY=0.5;exitDx=0;exitDy=0;entryX=1;entryY=0.5;entryDx=0;entryDy=0;" edge="1" source="b7tA7qNJ-c-AhHCX-gwD-27" target="b7tA7qNJ-c-AhHCX-gwD-25" parent="1">
          <mxGeometry relative="1" as="geometry" />
        </mxCell>
        <mxCell id="b7tA7qNJ-c-AhHCX-gwD-27" value="LLM" style="rounded=1;whiteSpace=wrap;html=1;fillColor=#ffe6cc;strokeColor=#d79b00;" vertex="1" parent="1">
          <mxGeometry x="620" y="650" width="120" height="60" as="geometry" />
        </mxCell>
        <mxCell id="b7tA7qNJ-c-AhHCX-gwD-28" value="DB" style="rounded=1;whiteSpace=wrap;html=1;fillColor=#fff2cc;strokeColor=#d6b656;" vertex="1" parent="1">
          <mxGeometry x="280" y="840" width="110" height="60" as="geometry" />
        </mxCell>
        <mxCell id="b7tA7qNJ-c-AhHCX-gwD-29" value="cache" style="rounded=1;whiteSpace=wrap;html=1;fillColor=#fff2cc;strokeColor=#d6b656;" vertex="1" parent="1">
          <mxGeometry x="150" y="840" width="110" height="60" as="geometry" />
        </mxCell>
        <mxCell id="b7tA7qNJ-c-AhHCX-gwD-31" value="embedding runtime" style="rounded=1;whiteSpace=wrap;html=1;fillColor=#f8cecc;strokeColor=#b85450;" vertex="1" parent="1">
          <mxGeometry x="454" y="730" width="120" height="60" as="geometry" />
        </mxCell>
        <mxCell id="b7tA7qNJ-c-AhHCX-gwD-32" style="edgeStyle=orthogonalEdgeStyle;rounded=0;orthogonalLoop=1;jettySize=auto;html=1;exitX=0;exitY=0.5;exitDx=0;exitDy=0;entryX=1;entryY=0.5;entryDx=0;entryDy=0;" edge="1" source="b7tA7qNJ-c-AhHCX-gwD-33" target="b7tA7qNJ-c-AhHCX-gwD-31" parent="1">
          <mxGeometry relative="1" as="geometry" />
        </mxCell>
        <mxCell id="b7tA7qNJ-c-AhHCX-gwD-33" value="text embedding model" style="rounded=1;whiteSpace=wrap;html=1;fillColor=#ffe6cc;strokeColor=#d79b00;" vertex="1" parent="1">
          <mxGeometry x="620" y="730" width="120" height="60" as="geometry" />
        </mxCell>
        <mxCell id="b7tA7qNJ-c-AhHCX-gwD-35" value="vector storage &amp;amp; search" style="rounded=1;whiteSpace=wrap;html=1;fillColor=#e1d5e7;strokeColor=#9673a6;" vertex="1" parent="1">
          <mxGeometry x="454" y="820" width="120" height="60" as="geometry" />
        </mxCell>
        <mxCell id="b7tA7qNJ-c-AhHCX-gwD-38" value="" style="rounded=0;whiteSpace=wrap;html=1;strokeColor=none;" vertex="1" parent="1">
          <mxGeometry x="50" y="1040" width="810" height="370" as="geometry" />
        </mxCell>
        <mxCell id="b7tA7qNJ-c-AhHCX-gwD-39" style="edgeStyle=orthogonalEdgeStyle;rounded=0;orthogonalLoop=1;jettySize=auto;html=1;exitX=1;exitY=0.5;exitDx=0;exitDy=0;entryX=0;entryY=0.5;entryDx=0;entryDy=0;" edge="1" source="b7tA7qNJ-c-AhHCX-gwD-40" target="b7tA7qNJ-c-AhHCX-gwD-46" parent="1">
          <mxGeometry relative="1" as="geometry" />
        </mxCell>
        <mxCell id="b7tA7qNJ-c-AhHCX-gwD-40" value="gateway" style="rounded=1;whiteSpace=wrap;html=1;fillColor=#d5e8d4;strokeColor=#82b366;" vertex="1" parent="1">
          <mxGeometry x="220" y="1160" width="100" height="60" as="geometry" />
        </mxCell>
        <mxCell id="b7tA7qNJ-c-AhHCX-gwD-42" style="rounded=0;orthogonalLoop=1;jettySize=auto;html=1;exitX=0.5;exitY=1;exitDx=0;exitDy=0;" edge="1" source="b7tA7qNJ-c-AhHCX-gwD-46" target="b7tA7qNJ-c-AhHCX-gwD-50" parent="1">
          <mxGeometry relative="1" as="geometry" />
        </mxCell>
        <mxCell id="b7tA7qNJ-c-AhHCX-gwD-43" style="rounded=0;orthogonalLoop=1;jettySize=auto;html=1;exitX=0.5;exitY=1;exitDx=0;exitDy=0;entryX=0.5;entryY=0;entryDx=0;entryDy=0;dashed=1;" edge="1" source="b7tA7qNJ-c-AhHCX-gwD-46" target="b7tA7qNJ-c-AhHCX-gwD-51" parent="1">
          <mxGeometry relative="1" as="geometry" />
        </mxCell>
        <mxCell id="b7tA7qNJ-c-AhHCX-gwD-44" style="rounded=0;orthogonalLoop=1;jettySize=auto;html=1;exitX=1;exitY=0.5;exitDx=0;exitDy=0;entryX=0;entryY=0.5;entryDx=0;entryDy=0;dashed=1;" edge="1" source="b7tA7qNJ-c-AhHCX-gwD-46" target="b7tA7qNJ-c-AhHCX-gwD-52" parent="1">
          <mxGeometry relative="1" as="geometry" />
        </mxCell>
        <mxCell id="b7tA7qNJ-c-AhHCX-gwD-45" style="rounded=0;orthogonalLoop=1;jettySize=auto;html=1;exitX=1;exitY=0.5;exitDx=0;exitDy=0;entryX=0;entryY=0.5;entryDx=0;entryDy=0;dashed=1;" edge="1" source="b7tA7qNJ-c-AhHCX-gwD-46" target="b7tA7qNJ-c-AhHCX-gwD-55" parent="1">
          <mxGeometry relative="1" as="geometry" />
        </mxCell>
        <mxCell id="b7tA7qNJ-c-AhHCX-gwD-60" style="rounded=0;orthogonalLoop=1;jettySize=auto;html=1;exitX=0.5;exitY=0;exitDx=0;exitDy=0;entryX=0.5;entryY=1;entryDx=0;entryDy=0;" edge="1" parent="1" source="b7tA7qNJ-c-AhHCX-gwD-46" target="b7tA7qNJ-c-AhHCX-gwD-58">
          <mxGeometry relative="1" as="geometry" />
        </mxCell>
        <mxCell id="b7tA7qNJ-c-AhHCX-gwD-46" value="server" style="rounded=1;whiteSpace=wrap;html=1;fillColor=#dae8fc;strokeColor=#6c8ebf;" vertex="1" parent="1">
          <mxGeometry x="360" y="1160" width="120" height="60" as="geometry" />
        </mxCell>
        <mxCell id="b7tA7qNJ-c-AhHCX-gwD-47" value="inference runtime" style="rounded=1;whiteSpace=wrap;html=1;fillColor=#f8cecc;strokeColor=#b85450;" vertex="1" parent="1">
          <mxGeometry x="550" y="1160" width="120" height="60" as="geometry" />
        </mxCell>
        <mxCell id="b7tA7qNJ-c-AhHCX-gwD-48" style="edgeStyle=orthogonalEdgeStyle;rounded=0;orthogonalLoop=1;jettySize=auto;html=1;exitX=0;exitY=0.5;exitDx=0;exitDy=0;entryX=1;entryY=0.5;entryDx=0;entryDy=0;" edge="1" source="b7tA7qNJ-c-AhHCX-gwD-49" target="b7tA7qNJ-c-AhHCX-gwD-47" parent="1">
          <mxGeometry relative="1" as="geometry" />
        </mxCell>
        <mxCell id="b7tA7qNJ-c-AhHCX-gwD-49" value="LLM" style="rounded=1;whiteSpace=wrap;html=1;fillColor=#ffe6cc;strokeColor=#d79b00;" vertex="1" parent="1">
          <mxGeometry x="700" y="1160" width="100" height="60" as="geometry" />
        </mxCell>
        <mxCell id="b7tA7qNJ-c-AhHCX-gwD-50" value="DB" style="rounded=1;whiteSpace=wrap;html=1;fillColor=#fff2cc;strokeColor=#d6b656;" vertex="1" parent="1">
          <mxGeometry x="404" y="1270" width="100" height="60" as="geometry" />
        </mxCell>
        <mxCell id="b7tA7qNJ-c-AhHCX-gwD-51" value="cache" style="rounded=1;whiteSpace=wrap;html=1;fillColor=#f5f5f5;strokeColor=#666666;fontColor=#333333;dashed=1;" vertex="1" parent="1">
          <mxGeometry x="290" y="1270" width="100" height="60" as="geometry" />
        </mxCell>
        <mxCell id="b7tA7qNJ-c-AhHCX-gwD-52" value="embedding runtime" style="rounded=1;whiteSpace=wrap;html=1;fillColor=#f5f5f5;strokeColor=#666666;fontColor=#333333;dashed=1;" vertex="1" parent="1">
          <mxGeometry x="550" y="1240" width="120" height="60" as="geometry" />
        </mxCell>
        <mxCell id="b7tA7qNJ-c-AhHCX-gwD-53" style="edgeStyle=orthogonalEdgeStyle;rounded=0;orthogonalLoop=1;jettySize=auto;html=1;exitX=0;exitY=0.5;exitDx=0;exitDy=0;entryX=1;entryY=0.5;entryDx=0;entryDy=0;dashed=1;" edge="1" source="b7tA7qNJ-c-AhHCX-gwD-54" target="b7tA7qNJ-c-AhHCX-gwD-52" parent="1">
          <mxGeometry relative="1" as="geometry" />
        </mxCell>
        <mxCell id="b7tA7qNJ-c-AhHCX-gwD-54" value="text embedding model" style="rounded=1;whiteSpace=wrap;html=1;fillColor=#f5f5f5;strokeColor=#666666;fontColor=#333333;dashed=1;" vertex="1" parent="1">
          <mxGeometry x="700" y="1240" width="100" height="60" as="geometry" />
        </mxCell>
        <mxCell id="b7tA7qNJ-c-AhHCX-gwD-55" value="vector storage &amp;amp; search" style="rounded=1;whiteSpace=wrap;html=1;fillColor=#f5f5f5;strokeColor=#666666;fontColor=#333333;dashed=1;" vertex="1" parent="1">
          <mxGeometry x="550" y="1320" width="120" height="60" as="geometry" />
        </mxCell>
        <mxCell id="b7tA7qNJ-c-AhHCX-gwD-57" style="edgeStyle=orthogonalEdgeStyle;rounded=0;orthogonalLoop=1;jettySize=auto;html=1;exitX=1;exitY=0.5;exitDx=0;exitDy=0;entryX=0;entryY=0.5;entryDx=0;entryDy=0;" edge="1" parent="1" source="b7tA7qNJ-c-AhHCX-gwD-56" target="b7tA7qNJ-c-AhHCX-gwD-40">
          <mxGeometry relative="1" as="geometry" />
        </mxCell>
        <mxCell id="b7tA7qNJ-c-AhHCX-gwD-56" value="web" style="rounded=1;whiteSpace=wrap;html=1;fillColor=#f5f5f5;fontColor=#333333;strokeColor=#666666;" vertex="1" parent="1">
          <mxGeometry x="80" y="1160" width="100" height="60" as="geometry" />
        </mxCell>
        <mxCell id="b7tA7qNJ-c-AhHCX-gwD-61" style="edgeStyle=orthogonalEdgeStyle;rounded=0;orthogonalLoop=1;jettySize=auto;html=1;exitX=1;exitY=0.5;exitDx=0;exitDy=0;entryX=0;entryY=0.5;entryDx=0;entryDy=0;" edge="1" parent="1" source="b7tA7qNJ-c-AhHCX-gwD-58" target="b7tA7qNJ-c-AhHCX-gwD-59">
          <mxGeometry relative="1" as="geometry" />
        </mxCell>
        <mxCell id="b7tA7qNJ-c-AhHCX-gwD-58" value="MQ" style="rounded=1;whiteSpace=wrap;html=1;fillColor=#e1d5e7;strokeColor=#9673a6;" vertex="1" parent="1">
          <mxGeometry x="444" y="1070" width="100" height="60" as="geometry" />
        </mxCell>
        <mxCell id="b7tA7qNJ-c-AhHCX-gwD-62" style="edgeStyle=orthogonalEdgeStyle;rounded=0;orthogonalLoop=1;jettySize=auto;html=1;exitX=0.5;exitY=1;exitDx=0;exitDy=0;entryX=0.5;entryY=0;entryDx=0;entryDy=0;" edge="1" parent="1" source="b7tA7qNJ-c-AhHCX-gwD-59" target="b7tA7qNJ-c-AhHCX-gwD-47">
          <mxGeometry relative="1" as="geometry" />
        </mxCell>
        <mxCell id="b7tA7qNJ-c-AhHCX-gwD-59" value="MQ consumer" style="rounded=1;whiteSpace=wrap;html=1;fillColor=#fff2cc;strokeColor=#d6b656;" vertex="1" parent="1">
          <mxGeometry x="564" y="1070" width="100" height="60" as="geometry" />
        </mxCell>
      </root>
    </mxGraphModel>
  </diagram>
</mxfile>
